<svg xmlns="http://www.w3.org/2000/svg" xmlns:xlink="http://www.w3.org/1999/xlink" width="50" zoomAndPan="magnify" viewBox="0 0 37.5 37.499999" height="50" preserveAspectRatio="xMidYMid meet" version="1.0"><defs><clipPath id="56fe5f5583"><path d="M 4.441406 0 L 33.304688 0 L 33.304688 37 L 4.441406 37 Z M 4.441406 0 " clip-rule="nonzero"/></clipPath></defs><g clip-path="url(#56fe5f5583)"><path fill="#c9a84c" d="M 26.8125 18.09375 L 26.8125 13.839844 L 23.71875 12.132812 L 23.71875 18.351562 C 23.128906 18.4375 22.554688 18.546875 21.992188 18.671875 L 21.992188 8.207031 L 18.898438 6.488281 L 18.898438 19.605469 C 18.304688 19.832031 17.730469 20.078125 17.171875 20.34375 L 17.171875 0.015625 L 14.082031 1.722656 L 14.082031 22.105469 C 13.476562 22.511719 12.898438 22.9375 12.355469 23.371094 L 12.355469 6.488281 L 9.261719 8.207031 L 9.261719 26.246094 C 8.617188 26.933594 8.042969 27.617188 7.535156 28.269531 L 7.535156 12.132812 L 4.441406 13.839844 L 4.441406 36.988281 C 8.542969 30.859375 18.007812 18.539062 33.308594 18.746094 C 30.992188 18.25 28.828125 18.050781 26.8125 18.09375 " fill-opacity="1" fill-rule="nonzero"/></g></svg>